:SAMPLES-PER-SECOND 30
:FULLY-SPECIFIED
:DEGREES
821
root  -27.184 33.6699 -23.8513 66.7907 -2.16991 85.011
Spine  -0.0173377 3.01733 -10.8713
Spine1  -0.189624 3.72079 -5.67428
Neck  3.97569e-016 0 -2.38542e-015
Head  23.9809 1.17103 -1.32317
R_Clavicle  0.446468 -18.0197 2.76017
R_UpperArm  -0.13488 -17.3218 52.3854
R_Forearm  9.81935 8.71834 -7.34667
R_Hand  1.38541 7.37407 0.180803
L_Clavicle  -0.443989 15.6809 0.0275862
L_UpperArm  0.948474 15.4886 41.7906
L_Forearm  17.6578 -3.05151 -3.53849
L_Hand  1.21823 3.59592 15.2298
L_Thigh  6.73297 6.32029 18.5025
L_Calf  3.74057 2.12826 -16.2269
L_Foot  -1.12093 5.00419 -9.74737
L_Toe0  0.505156 0.0334026 -6.13611
R_Thigh  7.35084 4.52269 -20.4233
R_Calf  -14.3707 9.81856 32.6342
R_Foot  0.850265 -0.431083 -8.76234
R_Toe0  -3.90043 1.31267 1.15432
822
root  -27.9558 34.1601 -23.2396 58.5916 -1.14241 85.1765
Spine  0.488001 5.06944 -8.93761
Spine1  0.0496535 -0.886569 -7.18539
Neck  3.97569e-016 0 -2.38542e-015
Head  29.9072 3.09338 0.913713
R_Clavicle  0.426535 -16.7786 2.22491
R_UpperArm  0.366008 -20.2608 52.0638
R_Forearm  6.09993 9.61674 -8.11864
R_Hand  1.36656 5.97765 2.27083
L_Clavicle  -0.373701 13.6777 -0.542896
L_UpperArm  -1.42267 18.3037 44.1166
L_Forearm  18.9001 -3.90103 -4.52731
L_Hand  1.35791 4.54137 15.4093
L_Thigh  2.96512 4.55689 17.4072
L_Calf  5.61007 1.06711 -8.27139
L_Foot  -1.23514 4.04856 -9.53541
L_Toe0  0.505156 0.0324272 -6.13611
R_Thigh  10.0891 2.9848 -20.8607
R_Calf  -14.399 9.66977 32.0334
R_Foot  2.60853 6.36703 -13.7604
R_Toe0  -9.08767 3.03046 1.14501
823
root  -28.7916 34.2647 -22.4703 51.0492 0.925767 84.3737
Spine  0.729628 6.24454 -6.85443
Spine1  0.138507 -3.76194 -7.33707
Neck  3.97569e-016 0 -2.38542e-015
Head  36.6098 4.47106 2.74936
R_Clavicle  0.392544 -15.3288 1.67801
R_UpperArm  0.662589 -21.6077 50.8487
R_Forearm  3.77731 9.64622 -8.14274
R_Hand  1.3455 4.94666 4.06101
L_Clavicle  -0.311433 12.1973 -0.893482
L_UpperArm  -1.34022 19.1052 44.9415
L_Forearm  19.175 -3.48093 -4.03964
L_Hand  1.42071 5.28114 15.0539
L_Thigh  -0.166332 3.37263 14.4837
L_Calf  5.98149 -0.369106 2.23224
L_Foot  -1.31617 0.897457 -7.46302
L_Toe0  0.505156 0.0312645 -6.13613
R_Thigh  12.2348 1.84755 -23.4133
R_Calf  -9.12922 9.54302 31.5138
R_Foot  2.93779 8.2537 -14.7892
R_Toe0  -7.8799 2.62958 0.926853
824
root  -29.6755 34.0661 -21.7048 43.6636 1.62369 84.0582
Spine  1.03719 6.70692 -7.18461
Spine1  0.398984 -5.08029 -6.77187
Neck  3.97569e-016 0 -2.38542e-015
Head  43.6156 5.13541 4.70892
R_Clavicle  0.360781 -14.4485 1.28659
R_UpperArm  0.30355 -20.9562 50.3969
R_Forearm  4.8421 9.45044 -7.97228
R_Hand  1.18983 4.32707 3.86622
L_Clavicle  -0.288372 11.7296 -1.05659
L_UpperArm  0.47822 18.2587 45.0483
L_Forearm  19.53 -2.30717 -2.67854
L_Hand  1.33939 5.394 14.0722
L_Thigh  -3.83624 2.76021 12.8247
L_Calf  4.92494 -1.9896 14.4166
L_Foot  -1.63675 -0.797162 -7.50188
L_Toe0  0.505156 0.0300044 -6.13614
R_Thigh  14.1962 1.42381 -25.3117
R_Calf  -3.01233 9.67415 31.9657
R_Foot  2.08308 3.93301 -12.4304
R_Toe0  -1.7775 0.540806 0.599537
825
root  -30.4792 33.6023 -21.0593 35.844 0.838079 85.2202
Spine  1.75753 6.80911 -9.47878
Spine1  1.22221 -5.81174 -6.85897
Neck  3.97569e-016 0 -2.38542e-015
Head  50.1919 5.26307 7.18776
R_Clavicle  0.358285 -13.9437 1.3052
R_UpperArm  -0.410978 -19.1503 50.9259
R_Forearm  7.91329 9.74835 -8.22806
R_Hand  1.05573 4.16047 2.88588
L_Clavicle  -0.278171 11.5952 -1.18281
L_UpperArm  2.89317 16.9128 45.3928
L_Forearm  19.3601 -1.34624 -1.56717
L_Hand  1.31284 5.54425 13.6183
L_Thigh  -9.16321 2.75424 13.7168
L_Calf  3.62025 -3.66744 26.7109
L_Foot  -1.75147 -0.405322 -8.47768
L_Toe0  0.505156 0.0287368 -6.13615
R_Thigh  15.2924 0.896443 -25.1767
R_Calf  0.426761 9.86203 32.6487
R_Foot  1.29152 1.68461 -8.13738
R_Toe0  1.85072 -0.553636 0.621406
